PathFileType	4	(X/Y/Z)	D:\Share\Shared_Data\Ergonomics\Sit To Stand Pertubation\S2\Perturbed.trc
DataRate	CameraRate	NumFrames	NumMarkers	Units	OrigDataRate	OrigDataStartFrame	OrigNumFrames	
100	100	9	18	m	100	14401	221
Frame#	Time	R_Toe			R_ASIS			R_Pelvis			V_Sacral			L_Pelvis			L_ASIS			Clavical			R_Acromium			L_Acromium			Sternum			Torso			R_Thigh_Med			R_Thigh_Lat			R_Thigh			R_Shank_Med			R_Shank_Lat			R_Shank			R_Heel			
		X1	Y1	Z1	X2	Y2	Z2	X3	Y3	Z3	X4	Y4	Z4	X5	Y5	Z5	X6	Y6	Z6	X7	Y7	Z7	X8	Y8	Z8	X9	Y9	Z9	X10	Y10	Z10	X11	Y11	Z11	X12	Y12	Z12	X13	Y13	Z13	X14	Y14	Z14	X15	Y15	Z15	X16	Y16	Z16	X17	Y17	Z17	X18	Y18	Z18	

14401	144	0.43431808	0.064928673	0.14691499	0.25308478	0.93167938	0.13558894	0.18878986	0.96986957	0.18274306	0.039642548	0.99941193	0.028097179	0.13967375	0.99011456	-0.1575314	0.23185768	0.95739111	-0.13357875	0.48096017	1.267052	0.0011967348	0.42167285	1.3443838	0.20544055	0.41383328	1.3485791	-0.18446422	0.43477841	1.1123983	0.0048537135	0.47149625	1.2305176	-0.11024076	0.39802466	0.49231378	0.10944586	0.37803967	0.51196616	0.20469298	0.36994281	0.69888171	0.17515457	0.30191797	0.10950636	0.10637456	0.27778165	0.099503517	0.19752843	0.34128625	0.36309305	0.22693541	0.19701025	0.059264816	0.14423601
14402	144.01	0.43428931	0.064970993	0.14701947	0.25722363	0.93715076	0.13584038	0.19227708	0.97436603	0.18281499	0.043625954	1.0038975	0.028088995	0.14333386	0.99459222	-0.15745239	0.23569182	0.96284454	-0.13328764	0.48084131	1.276203	0.0015970557	0.42081198	1.3525551	0.2058436	0.41265628	1.3571545	-0.18403148	0.43648486	1.1210245	0.0048672857	0.47167764	1.2396348	-0.11012353	0.39578128	0.49276389	0.10930675	0.3758483	0.51262433	0.20445171	0.3709071	0.6992334	0.17510092	0.30158786	0.10943542	0.1064034	0.27760983	0.099510674	0.19748747	0.33935306	0.36363977	0.22680141	0.19698473	0.059174774	0.14421008
14403	144.02	0.43425891	0.065010429	0.1471169	0.26131085	0.94244	0.13606862	0.19580095	0.97866272	0.18288683	0.047594204	1.0081276	0.028085794	0.1470011	0.9988598	-0.15736661	0.23950085	0.96807629	-0.13294821	0.48067572	1.2851791	0.0019792587	0.41984027	1.3605037	0.20623114	0.41136633	1.3655166	-0.18361501	0.4381376	1.1294601	0.004804306	0.47180157	1.2485468	-0.1100229	0.3935575	0.49319083	0.10914178	0.37366757	0.51325873	0.20419669	0.37184363	0.69950305	0.175032	0.30124585	0.10935392	0.10642971	0.27744022	0.09951207	0.19745529	0.33742862	0.36416904	0.22664742	0.19694669	0.059148651	0.14422046
14404	144.03	0.43422821	0.065046516	0.14720682	0.26530164	0.94753766	0.13625731	0.19935579	0.98276276	0.18295888	0.05154644	1.0120974	0.028090191	0.15067307	1.0029095	-0.15727541	0.24328938	0.97306879	-0.13258653	0.48044998	1.2939655	0.002334301	0.41875375	1.3682151	0.20660632	0.40995685	1.3736539	-0.18321632	0.4397254	1.137696	0.0046553569	0.47186609	1.2572457	-0.10993838	0.39136392	0.49359262	0.10894034	0.37151477	0.51386658	0.20391658	0.37275644	0.69969043	0.17492995	0.30090826	0.1092658	0.10644961	0.27727463	0.099511185	0.19742616	0.33552637	0.36468073	0.22646649	0.19690494	0.059192791	0.14426776
14405	144.04	0.43419873	0.065079033	0.14728937	0.2691712	0.95243634	0.13639571	0.20293452	0.98666547	0.18303545	0.055482758	1.0158054	0.028103426	0.15434743	1.0067375	-0.15718211	0.24706912	0.97782123	-0.13223061	0.48014651	1.3025468	0.0026592367	0.41754874	1.3756781	0.20697379	0.40842697	1.3815529	-0.18283528	0.44123895	1.1457234	0.0044199677	0.47186475	1.265725	-0.10986669	0.38920758	0.49396729	0.10869507	0.36940448	0.51444537	0.20360251	0.3736506	0.69979736	0.17478166	0.30059738	0.10917776	0.10646097	0.27711554	0.099511024	0.19739484	0.33365955	0.36517435	0.22625327	0.19686665	0.059300137	0.14434613
14406	144.05	0.43417172	0.065107544	0.14736459	0.27292828	0.9571311	0.13648462	0.20653162	0.99036676	0.1831235	0.059403656	1.0192528	0.028125912	0.15802222	1.0103436	-0.15708943	0.25086003	0.98234692	-0.13190602	0.47974805	1.3109073	0.0029559422	0.41622287	1.3828867	0.20733972	0.40678326	1.3891974	-0.18246962	0.44267584	1.1535343	0.0041118007	0.47179163	1.2739784	-0.10980289	0.3870943	0.49431396	0.10840263	0.36734854	0.5149928	0.20324913	0.37453311	0.69982806	0.17458223	0.30034039	0.10909849	0.10646292	0.27696533	0.099513535	0.19735712	0.33184058	0.36564926	0.2260054	0.19683443	0.05945166	0.14444334
14407	144.06	0.43414795	0.06513147	0.14743205	0.27662173	0.96162054	0.13654022	0.21014413	0.99386121	0.18322951	0.06331002	1.0224431	0.028157476	0.16169525	1.0137296	-0.15699792	0.25467979	0.98666608	-0.13163242	0.47924112	1.319035	0.0032287295	0.41477512	1.3898406	0.20771205	0.40503806	1.3965695	-0.18211592	0.44404584	1.1611228	0.0037631681	0.4716423	1.2820012	-0.10974149	0.3850282	0.49463269	0.10806498	0.36535538	0.51550739	0.20285493	0.37541284	0.69978772	0.17433569	0.30016714	0.10903745	0.1064556	0.27682547	0.099519485	0.19731041	0.33007962	0.36610535	0.22572426	0.19680688	0.059626057	0.14454576
14408	144.07	0.43412805	0.065150452	0.14749113	0.28032874	0.96590851	0.13659039	0.21377066	0.99714594	0.18335522	0.067203278	1.0253831	0.028196983	0.16536378	1.0168992	-0.15690654	0.25853336	0.99079724	-0.13141978	0.47861963	1.3269219	0.0034823666	0.41320615	1.3965422	0.20810085	0.40320493	1.4036519	-0.18177065	0.44537402	1.168486	0.0034223473	0.47141452	1.2897906	-0.10967751	0.38301187	0.49492407	0.10768928	0.36343039	0.51598883	0.2024221	0.37629935	0.6996825	0.17405356	0.30010373	0.1090033	0.10644009	0.27669617	0.099529152	0.19725365	0.32838287	0.36654337	0.22541463	0.1967821	0.05980621	0.14464267
14409	144.08	0.43411292	0.065164375	0.14754163	0.2841236	0.97000275	0.13666179	0.21741045	1.000224	0.18349562	0.071084915	1.0280822	0.028242456	0.16902374	1.0198568	-0.15681453	0.26241486	0.99475378	-0.13126791	0.47788547	1.3345638	0.0037210529	0.41151892	1.4029937	0.20851521	0.40129092	1.4104316	-0.18143095	0.44669678	1.1756228	0.003138557	0.47110748	1.2973438	-0.10960757	0.38104953	0.49518921	0.10728598	0.3615773	0.51643793	0.20195729	0.37720108	0.69951965	0.17375133	0.30015924	0.10900028	0.10641838	0.27657706	0.099542747	0.19718704	0.32675284	0.36696432	0.22508379	0.19676051	0.059978931	0.14472696
